<svg width="35" height="25" viewBox="0 0 35 25" fill="none" xmlns="http://www.w3.org/2000/svg">
<path d="M17.5 7.875C16.2733 7.875 15.0969 8.36227 14.2296 9.22963C13.3622 10.097 12.875 11.2734 12.875 12.5C12.875 13.7266 13.3622 14.903 14.2296 15.7704C15.0969 16.6377 16.2733 17.125 17.5 17.125C18.7266 17.125 19.903 16.6377 20.7703 15.7704C21.6377 14.903 22.125 13.7266 22.125 12.5C22.125 11.2734 21.6377 10.097 20.7703 9.22963C19.903 8.36227 18.7266 7.875 17.5 7.875ZM17.5 20.2083C15.4556 20.2083 13.4949 19.3962 12.0493 17.9506C10.6038 16.505 9.79163 14.5444 9.79163 12.5C9.79163 10.4556 10.6038 8.49498 12.0493 7.04939C13.4949 5.60379 15.4556 4.79167 17.5 4.79167C19.5443 4.79167 21.505 5.60379 22.9506 7.04939C24.3962 8.49498 25.2083 10.4556 25.2083 12.5C25.2083 14.5444 24.3962 16.505 22.9506 17.9506C21.505 19.3962 19.5443 20.2083 17.5 20.2083ZM17.5 0.9375C9.79163 0.9375 3.20871 5.73208 0.541626 12.5C3.20871 19.2679 9.79163 24.0625 17.5 24.0625C25.2083 24.0625 31.7912 19.2679 34.4583 12.5C31.7912 5.73208 25.2083 0.9375 17.5 0.9375Z" fill="#F88CAD"/>
</svg>
